<?xml version="1.0" encoding="UTF-8" standalone="no"?>
<svg
   xmlns:dc="http://purl.org/dc/elements/1.1/"
   xmlns:cc="http://creativecommons.org/ns#"
   xmlns:rdf="http://www.w3.org/1999/02/22-rdf-syntax-ns#"
   xmlns:svg="http://www.w3.org/2000/svg"
   xmlns="http://www.w3.org/2000/svg"
   xmlns:sodipodi="http://sodipodi.sourceforge.net/DTD/sodipodi-0.dtd"
   xmlns:inkscape="http://www.inkscape.org/namespaces/inkscape"
   xml:space="preserve"
   width="279.4mm"
   height="215.9mm"
   version="1.1"
   style="shape-rendering:geometricPrecision; text-rendering:geometricPrecision; image-rendering:optimizeQuality; fill-rule:evenodd; clip-rule:evenodd"
   viewBox="0 0 27940 21590"
   id="svg112"
   sodipodi:docname="4meLogo.svg"
   inkscape:version="1.0.1 (3bc2e813f5, 2020-09-07)"><metadata
   id="metadata116"><rdf:RDF><cc:Work
       rdf:about=""><dc:format>image/svg+xml</dc:format><dc:type
         rdf:resource="http://purl.org/dc/dcmitype/StillImage" /></cc:Work></rdf:RDF></metadata><sodipodi:namedview
   pagecolor="#ffffff"
   bordercolor="#666666"
   borderopacity="1"
   objecttolerance="10"
   gridtolerance="10"
   guidetolerance="10"
   inkscape:pageopacity="0"
   inkscape:pageshadow="2"
   inkscape:window-width="1919"
   inkscape:window-height="1016"
   id="namedview114"
   showgrid="false"
   inkscape:zoom="0.85365271"
   inkscape:cx="530.49059"
   inkscape:cy="407.49437"
   inkscape:window-x="0"
   inkscape:window-y="27"
   inkscape:window-maximized="0"
   inkscape:current-layer="svg112" />
 <defs
   id="defs101">
  <style
   type="text/css"
   id="style99">
   <![CDATA[
    .fil1 {fill:#062341}
    .fil0 {fill:#062341;fill-rule:nonzero}
   ]]>
  </style>
 </defs>
 <g
   id="Layer_x0020_1"
   transform="matrix(5.9396593,0,0,5.9396593,-69205.514,-47216.079)">
  <metadata
   id="CorelCorpID_0Corel-Layer" />
  <g
   id="_2308577443248">
   <path
   class="fil0"
   d="m 15756.66,9524.02 c -11.38,-73.68 -40.63,-133.26 -87.74,-178.76 -47.13,-45.5 -109.68,-68.26 -187.68,-68.26 -78,0 -140.98,22.39 -188.91,67.18 -47.94,44.78 -79.21,104.72 -93.86,179.84 z m -2797.07,-489.69 h 369.08 v 166.12 c 21.04,-24.93 44.1,-48.39 69.19,-71.15 25.08,-22.38 53.02,-42.25 83.76,-59.94 30.77,-17.35 65.16,-31.06 103.19,-41.53 38.04,-10.12 80.54,-15.17 127.47,-15.17 85.8,0 159.84,15.88 222.16,48.02 62.33,32.15 110.49,77.64 144.49,137.6 56.64,-61.38 119.77,-107.26 189.37,-138.68 69.59,-31.42 148.93,-46.94 237.95,-46.94 137.58,0 245.22,36.12 322.93,108.33 48.42,45.04 81.78,103.28 100,174.71 24.57,-38.29 53.4,-73.42 86.51,-105.37 56.87,-54.89 124.72,-98.22 203.53,-130 78.8,-31.79 166.14,-47.67 262.02,-47.67 108.86,0 203.12,17.34 282.73,52 79.64,34.66 145.85,81.26 198.66,139.76 52.81,58.51 91.79,125.67 117,201.52 25.19,75.84 37.77,154.92 37.77,237.27 0,12.99 -0.4,26.71 -1.21,41.17 -0.81,14.43 -2.04,29.6 -3.68,45.49 h -909.14 c 17.86,75.11 54.83,131.82 110.9,170.09 56.06,38.29 125.53,57.43 208.39,57.43 61.76,0 117.01,-9.4 165.77,-28.18 48.74,-18.78 99.11,-49.11 151.1,-91 l 212.06,166.84 c -61.76,67.89 -136.5,120.98 -224.26,159.26 -87.72,38.27 -190.92,57.41 -309.53,57.41 -97.51,0 -188.1,-14.44 -271.78,-43.33 -83.69,-28.89 -156,-70.06 -216.93,-123.5 -31.34,-27.5 -59.13,-57.55 -83.39,-90.2 v 231.03 h -369.04 V 9549.3 c 0,-77.65 -18.61,-136.51 -55.83,-175.87 -37.24,-39.72 -90.65,-59.58 -160.27,-59.58 -69.6,0 -124.23,19.86 -163.88,59.58 -39.68,39.36 -59.48,98.22 -59.48,175.87 v 646.42 h -369.06 V 9549.3 c 0,-77.65 -18.62,-136.51 -55.86,-175.87 -37.22,-39.72 -90.63,-59.58 -160.23,-59.58 -69.6,0 -124.24,19.86 -163.9,59.58 -39.66,39.36 -59.48,98.22 -59.48,175.87 v 646.42 c -187.88,0 -375.77,0 -563.64,0 v 325.09 h -318.66 v -325.09 h -795.02 l -0.53,-238.52 827.03,-922.87 h 287.18 v 888.19 h 194.56 z m -513.22,888.19 v -472.57 l -403.19,472.57 z"
   id="path104" />
   <path
   class="fil1"
   d="m 16236.32,9012.66 c 66.1,0 119.69,53.6 119.69,119.7 0,66.11 -53.59,119.7 -119.69,119.7 -66.11,0 -119.7,-53.59 -119.7,-119.7 0,-66.1 53.59,-119.7 119.7,-119.7 z m 0,24.2 c 52.74,0 95.51,42.77 95.51,95.5 0,52.74 -42.77,95.52 -95.51,95.52 -52.74,0 -95.52,-42.78 -95.52,-95.52 0,-52.73 42.78,-95.5 95.52,-95.5 z"
   id="path106" />
   <path
   class="fil0"
   d="m 16296.64,9193.92 h -32.6 l -19.55,-32.41 c -1.49,-2.45 -2.88,-4.63 -4.24,-6.59 -1.35,-1.93 -2.71,-3.57 -4.07,-4.95 -1.39,-1.37 -2.83,-2.42 -4.32,-3.18 -1.5,-0.71 -3.11,-1.06 -4.85,-1.06 h -7.65 v 48.19 h -28.38 v -125.91 h 44.96 c 30.57,0 45.86,11.41 45.86,34.23 0,4.39 -0.69,8.44 -2.05,12.16 -1.34,3.71 -3.24,7.08 -5.69,10.07 -2.45,2.97 -5.42,5.55 -8.9,7.71 -3.5,2.18 -7.37,3.86 -11.67,5.08 v 0.36 c 1.9,0.6 3.7,1.54 5.46,2.86 1.78,1.31 3.46,2.85 5.09,4.62 1.66,1.77 3.22,3.65 4.72,5.66 1.49,2.01 2.85,3.98 4.08,5.93 z m -77.28,-104.66 v 35.03 h 12.28 c 6.1,0 11,-1.77 14.67,-5.28 3.75,-3.56 5.62,-8 5.62,-13.25 0,-11.03 -6.59,-16.5 -19.77,-16.5 z"
   id="path108" />
  </g>
 </g>
</svg>
